# xmcd
#
# Track frame offsets:
#	150
#	15322
#	30869
#	41672
#	54280
#	71265
#	86391
#	101365
#	112362
#	122479
#	145568
#	163454
#	177167
#	188650
#	202805
#
# Disc length: 2861 seconds
#
# Revision: 0
# Processed by: cddbd v1.5.2PL0 Copyright (c) Steve Scherf et al.
# Submitted via: EasyCDDAExtractor 5.0.2.1
#
DISCID=b40b2b0f
DTITLE=A Group - Volume 3
DYEAR=2000
DGENRE=
TTITLE0=Crazy Horses
TTITLE1=There's no justice in life
TTITLE2=Ma p'tit' chanson
TTITLE3=The fool on the hill
TTITLE4=The silencers
TTITLE5=Porque te vas
TTITLE6=School's out
TTITLE7=The Rhythm of the heat
TTITLE8=Heureux qui comme Ulysse
TTITLE9=Shield
TTITLE10=Lonesome Train
TTITLE11=My time
TTITLE12=Girl
TTITLE13=Poptones
TTITLE14=The Penguin
EXTD=
EXTT0=
EXTT1=
EXTT2=
EXTT3=
EXTT4=
EXTT5=
EXTT6=
EXTT7=
EXTT8=
EXTT9=
EXTT10=
EXTT11=
EXTT12=
EXTT13=
EXTT14=
PLAYORDER=
